<svg xmlns="http://www.w3.org/2000/svg" width="512" height="512" viewBox="0 0 60 53">
  <g fill="#000" fill-rule="nonzero" xmlns="http://www.w3.org/2000/svg">
    <path d="M54 41c-2.01612.0059-3.8945 1.02398-5 2.71V39c1.10457 0 2-.89543 2-2v-4a.8.8 0 00-.07-.34v-.06a.56.56 0 00-.09-.17C48.75215 29.6475 45.47871 28.00707 42 28h-8c-1.65685 0-3 1.34315-3 3v3.68c-4.41-3.33-12-9.32-18-14.14V15c0-.55228-.44772-1-1-1s-1 .44772-1 1v3.94l-5.13-4.11A2.88 2.88 0 006 14V9c0-1.65685-1.34315-3-3-3S0 7.34315 0 9v5c0 1.65685 1.34315 3 3 3a3 3 0 001.71-.54c5.5 4.43 20.4 16.36 26.31 20.73.09753 1.02214.95323 1.80437 1.98 1.81v1.13l-2.09-.5c-1.50019-1.65676-3.62504-2.6104-5.86-2.63L5.84 22.16 1.76 19c-.4366-.3358-1.06254-.25532-1.4.18a1 1 0 00.18 1.42l3 2.27C1.37 24.79 1.1 28 1 29.85c-.48 5.15.34 9.52 2.41 12.86C7 48.5 13.65 49.89 18.79 50c2.40935 3.03595 6.6619 3.88223 10.05 2h21.89A5.91 5.91 0 0054 53c3.3137 0 6-2.6863 6-6s-2.6863-6-6-6zM2 14V9c0-.55228.44772-1 1-1s1 .44772 1 1v5c0 .55228-.44772 1-1 1s-1-.44772-1-1zm45.77 31.67l.37.09A6.45 6.45 0 0048 47a6 6 0 00.81 3H31.22c1.83985-2.24301 2.30422-5.31321 1.21-8 3.68.93 10.84 2.63 15.34 3.67zM49 37H33v-3h16zm-16-6c0-.55228.44772-1 1-1h8a9 9 0 015.65 2H33zm2 8h12v4.44c-3.67-.85-8.52-2-12-2.83zM5.11 41.66c-1.83-3-2.57-6.89-2.17-11.65.19-2.23.54-4.67 2.18-5.87l17.24 13.31C19.1505 38.57199 17.00079 41.60004 17 45a8.05 8.05 0 00.59 3c-4.42-.34-9.59-1.75-12.48-6.34zm15 6.79l-.08-.1c-1.21373-1.79858-1.36183-4.11233-.38732-6.05098.9745-1.93865 2.91977-3.20011 5.08732-3.29902a1.23 1.23 0 00.27 0c2.84586-.00423 5.30319 1.9913 5.88305 4.77746.57986 2.78616-.8773 5.59638-3.48854 6.72789-2.61124 1.13151-5.65814.273-7.29451-2.05535zM54 51c-2.20914 0-4-1.79086-4-4s1.79086-4 4-4 4 1.79086 4 4-1.79086 4-4 4z" fill="#fff" data-original="#000000"/>
    <path d="M13.29 43.15A8.85 8.85 0 019 40.26c-2-2.6-2.26-6.45-2.12-9.21.03038-.55228-.39272-1.02462-.945-1.055-.55228-.03038-1.02462.39272-1.055.945-.16 3.11.15 7.45 2.53 10.54A10.89 10.89 0 0012.65 45a.87.87 0 00.32.06c.55228.08837 1.07163-.28772 1.16-.84.08837-.55228-.28772-1.07163-.84-1.16zM25 42c-1.65685 0-3 1.34315-3 3s1.34315 3 3 3 3-1.34315 3-3-1.34315-3-3-3zm0 4c-.55228 0-1-.44772-1-1s.44772-1 1-1 1 .44772 1 1-.44772 1-1 1z" fill="#fff" data-original="#000000"/>
    <circle cx="54" cy="47" r="1" fill="#fff" data-original="#000000"/>
    <path d="M22 2h1c.55228 0 1-.44772 1-1s-.44772-1-1-1h-1c-.55228 0-1 .44772-1 1s.44772 1 1 1zM38.25 9.54a1 1 0 00.78.38 1 1 0 00.63-.23c.42259-.34937.48504-.97387.14-1.4-.45-.56-.93-1.1-1.41-1.61a1 1 0 00-1.42 0 1 1 0 000 1.42c.43.44.86.9 1.28 1.44zM42.78 18.25c.19.63.36 1.28.51 1.92.10881.46117.52634.78266 1 .77h.23c.53463-.12852.8652-.66458.74-1.2-.16-.68-.34-1.37-.55-2-.08576-.36213-.3655-.64668-.72612-.73859-.36062-.0919-.74244.02404-.99106.30095-.24862.27691-.3229.66897-.19282 1.01764zM41.36 14.56c.1654.34728.51534.56891.9.57a1.07 1.07 0 00.43-.09c.49974-.2348.71462-.83018.48-1.33-.3-.65-.63-1.28-1-1.89-.27614-.48049-.88951-.64614-1.37-.37s-.64614.88951-.37 1.37c.34.55.65 1.18.93 1.74zM26.85 2.5c.64.13 1.27.3 1.89.49A1 1 0 0029 3c.43526-.00172.81942-.28478.95-.7a1 1 0 00-.65-1.26C28.62.83 27.93.65 27.22.5c-.53807-.11107-1.06498.23276-1.18.77a1 1 0 00.81 1.23zM32.32 4.52c.57.32 1.12.66 1.66 1a1 1 0 00.57.18c.43628-.00103.82154-.28478.95193-.70113.1304-.41634-.02418-.86916-.38193-1.11887-.59-.41-1.21-.79-1.83-1.14a1 1 0 00-1.36.39 1 1 0 00.39 1.39zM43.94 24.09v.97A1 1 0 0045 26h.06a1 1 0 00.94-1.07v-.49-.52a1 1 0 00-1.16-.92c-.54939.05272-.9522.54056-.9 1.09zM20 6h1c.55228.0138 1.0112-.42272 1.025-.975S21.60228 4.0138 21.05 4H20c-.55228 0-1 .44772-1 1s.44772 1 1 1zM29.74 7.62c-.30522.45372-.1894 1.06846.26 1.38a14.42 14.42 0 011.49 1.22 1 1 0 00.68.26 1 1 0 00.73-.32c.38772-.39004.38772-1.01996 0-1.41a16.5 16.5 0 00-1.68-1.37 1 1 0 00-1.48.24zM38.44 20.94c.52823-.14613.84042-.69022.7-1.22-.18-.69-.4-1.37-.63-2-.18778-.5219-.7631-.79278-1.285-.605-.5219.18778-.79278.7631-.605 1.285.22.61.42 1.24.59 1.87.12066.44922.53513.75592 1 .74a.82.82 0 00.23-.07zM24.78 6.59a15.63 15.63 0 011.83.59.94.94 0 00.37.07c.47874-.00359.88777-.34597.97556-.8166S27.78525 5.49592 27.34 5.32a19.65 19.65 0 00-2.05-.67 1.00296 1.00296 0 10-.51 1.94zM34.22 11.76c-.44212.3246-.54027.94474-.22 1.39.37.52.71 1.08 1 1.65a1 1 0 00.87.51 1.07 1.07 0 00.49-.12 1 1 0 00.38-1.37c-.35-.63-.74-1.24-1.13-1.81-.31524-.4522-.93696-.56402-1.39-.25zM39 26h.05c.53267-.02667.95067-.46667.95-1 0-.33 0-.68-.08-1a1 1 0 00-1.1-.9c-.54537.05782-.94241.54409-.89 1.09 0 .33.05.65.07.95.07025.49702.49807.86494 1 .86zM33 26h.06a1 1 0 00.94-1.07s0-.39-.12-1.06c-.07732-.55228-.58772-.93732-1.14-.86-.55228.07732-.93732.58772-.86 1.14.08.55.1.89.1.91.03212.53654.48263.95171 1.02.94zM23.31 8.85c-.5219-.18225-1.09275.0931-1.275.615s.0931 1.09275.615 1.275a10.93 10.93 0 011.71.75c.48615.25818 1.08954.07493 1.35-.41.25975-.48352.08123-1.08603-.4-1.35a13.78 13.78 0 00-2-.88zM28.76 12.38a1.00086 1.00086 0 10-1.45 1.38 13.2 13.2 0 011.2 1.45 1 1 0 00.81.42 1.06 1.06 0 00.59-.19 1 1 0 00.22-1.4 15.9 15.9 0 00-1.37-1.66zM31 20.37c.1394.42934.54914.71206 1 .69a.79.79 0 00.3 0c.52323-.1674.81346-.72552.65-1.25-.22-.69-.47-1.35-.73-2-.2154-.51086-.80414-.7504-1.315-.535-.51086.2154-.7504.80414-.535 1.315.24.54.46 1.15.63 1.78zM18 10h1c.55228.01657 1.01343-.41772 1.03-.97.01657-.55228-.41772-1.01343-.97-1.03H18c-.55228 0-1 .44772-1 1s.44772 1 1 1z" fill="#fff" data-original="#000000"/>
  </g>
</svg>
