<svg xmlns="http://www.w3.org/2000/svg" width="512" height="512" viewBox="0 0 60 60">
  <g xmlns="http://www.w3.org/2000/svg">
    <path d="M27.535 16.856c3.15 2.11 7.557 2 11.217.957a19.494 19.494 0 011.2 4.841L39.986 25H26a2 2 0 00-1.983 2.258l.91 7c.12815.98585.96095 1.72793 1.955 1.742l2.875 22.259c.13219.9952.98006 1.73923 1.984 1.741h18.518c1.00494-.00197 1.85318-.7476 1.984-1.744L55.118 36c.99305-.01387 1.8255-.75434 1.955-1.739 1.019-7.839.91-6.9.91-7A2 2 0 0056 25H42l.048-2.342a18.726 18.726 0 011.2-4.844c3.658 1.046 8.067 1.152 11.216-.958 4.8-3.213 5.5-10.612 5.531-10.926a.909.909 0 00-.014-.181.866.866 0 00-.148-.455v-.008c-.01-.015-.026-.022-.036-.036a.834.834 0 00-.332-.279.861.861 0 00-.126-.07c-.288-.1-7.12-2.495-11.94.732-4.334 2.9-5.325 9.2-5.5 10.63a5.744 5.744 0 00-.9 1.869 5.852 5.852 0 00-.9-1.878c-.175-1.442-1.171-7.724-5.5-10.621C29.784 2.407 22.952 4.8 22.663 4.9a.9.9 0 00-.126.07.843.843 0 00-.332.279c-.01.014-.026.021-.036.036a.89.89 0 00-.151.463.909.909 0 00-.018.182c.032.314.736 7.713 5.535 10.926zM24.4 7.981l12.33 8.256c-6.792 1.297-10.684-1.4-12.33-8.256zM50.259 58H31.741L28.9 36h24.2zm4.831-24H26.91L26 27h30zm-9.813-17.766l12.329-8.255c-1.648 6.886-5.56 9.541-12.329 8.255zm11.308-9.978L44.26 14.508C45.9 7.7 49.74 4.957 56.585 6.256zM33.491 7.3c2.532 1.7 3.718 5 4.251 7.214L25.411 6.253c2.148-.411 5.54-.653 8.08 1.047z" fill="#fff" data-original="#000000"/>
    <path d="M31 29h-2c-.55228 0-1 .44772-1 1s.44772 1 1 1h2c.55228 0 1-.44772 1-1s-.44772-1-1-1zM35 29c-.55228 0-1 .44772-1 1s.44772 1 1 1h7c.55228 0 1-.44772 1-1s-.44772-1-1-1zM11 60c5.908 0 11-15.522 11-23.143 0-7.043-3.99-9.116-8-9.669v-4.214c1.25457-.9364 1.99544-2.4085 2-3.974V5c0-2.76142-2.23858-5-5-5S6 2.23858 6 5v14c.00456 1.5655.74543 3.0376 2 3.974v4.214c-4.01.553-8 2.626-8 9.669C0 44.478 5.092 60 11 60zm1.807-30.923c-.525 4.857-1.307 7.251-1.807 7.838-.5-.587-1.282-2.981-1.807-7.838a21.173 21.173 0 013.614 0zM8 5c0-1.65685 1.34315-3 3-3s3 1.34315 3 3v14c0 1.65685-1.34315 3-3 3s-3-1.34315-3-3zm2 18.9a5.007 5.007 0 002 0v3.12c-.691-.025-1.291-.026-2 0zm-2.787 5.474C8.253 39 10.167 39 11 39s2.747 0 3.787-9.626c3.65.843 5.213 3.175 5.213 7.483C20 44.512 14.8 58 11 58S2 44.512 2 36.857c0-4.308 1.563-6.64 5.213-7.483z" fill="#fff" data-original="#000000"/>
    <circle cx="11" cy="5" r="1" fill="#fff" data-original="#000000"/>
  </g>
</svg>
