<svg xmlns="http://www.w3.org/2000/svg" width="512" height="512" viewBox="0 0 448.25 448.25">
  <path d="M442.4 254.157c-30.16-20.464-52.656 7.776-143.584 81.632l-83.888.016c-3.824 0-6.928-3.104-6.928-6.928 0-6.528 2.848-9.072 6.928-9.072h51.84c17.68 0 37.472-11.52 37.472-32 0-21.76-19.792-32-37.472-32-32.496 0-55.888 2.32-70.992-5.76-12.8-6.544-27.552-10.256-43.296-10.256-26.432 0-50.096 10.544-66.32 27.168L0 351.789l96 96 32-32h162.032c16.128 0 31.696-5.92 43.744-16.624l109.712-123.072c6.704-5.952 6.32-16.896-1.088-21.936zM322.496 387.741c-9.04 7.76-20.544 12.016-32.464 12.016H121.376L96 425.133l-73.28-73.28 74.896-73.744c13.84-14.176 33.84-22.32 54.864-22.32 12.672 0 25.136 2.928 35.744 8.336 17.968 9.616 37.104 7.648 78.544 7.648.208 0 21.472.176 21.472 16 0 10.912-12.816 16-21.472 16h-51.84c-12.032 0-22.928 8.944-22.928 25.072 0 12.672 10.256 22.928 22.928 22.928 19.472 0 71.808-.016 89.568-.016 95.584-77.648 108.24-94.784 126.544-85.776l-108.544 121.76zM323.968 128.557c-13.424 0-27.472 7.36-35.248 19.6-5.488 7.84-9.2 22.112-6.528 32.768-5.424 4.272-10.4 9.12-14.832 14.496 1.472-34.176 3.696-55.584 6.272-71.488 18.624.496 36.464-15.872 45.648-33.584 18.8-33.632 10.08-68.128 7.28-89.888-14.688 14.304-78.832-2.464-104.272 41.12-11.232 19.248-7.92 44.288 3.856 59.824 5.728 7.552 17.552 14.752 23.84 17.776-3.552 19.856-6.56 47.728-8.032 101.76-.24 8.944 6.944 16.352 15.856 16.352h.208c6.528-.08 12.112-4.224 14.608-10.24 3.808-9.152 10.016-18.624 20.112-27.312 9.248 9.856 19.888 14.384 31.056 14.384 15.776 0 32.432-9.408 44.176-29.712 10.96-18.944 15.872-23.952 16-24.08-13.136-5.904-35.312-31.776-60-31.776zm-71.712-26.32c-5.28-3.104-10.896-7.248-13.36-10.496-7.488-9.888-11.008-28-2.784-42.096 12.176-20.88 38.208-23.408 61.168-25.648 5.728-.56 11.184-1.088 16.256-1.904 2.416 18.512 3.264 39.904-8.448 60.896-6.288 12.16-18.736 25.28-32.192 24.912-.336-26.032 4.704-48.912 15.232-66.528-18.096 6.208-30.576 32.032-35.872 60.864zm101.888 74.144c-7.984 13.808-19.04 21.728-30.336 21.728-10.656 0-15.584-5.28-22.272-12.432 11.68-10.048 25.696-17.456 41.456-20.8-16.384-.208-31.76 3.92-45.344 11.04-.96-5.776 1.312-14.48 4.592-19.2 4.944-7.776 14.144-12.192 21.744-12.192 12.416 0 27.456 12.352 37.376 19.904-2.112 3.328-4.512 7.264-7.216 11.952z" fill="#fff" data-original="#000000" xmlns="http://www.w3.org/2000/svg"/>
  <path d="M225.072 151.293c-7.136-14.048-20.656-22.496-36.528-22.496-11.616 0-24.48 4.528-37.024 14.72-16.992 13.792-23.376 16.736-23.536 16.8 11.2 11.2 23.984 48.768 51.904 52.928 11.824 2.144 23.824-.96 32.784-7.632 6.928-4.704 16.208-16.464 17.744-27.76 1.152-8.4-.928-19.12-5.344-26.56zm-21.936 41.488c-5.52 4.112-12.832 6.064-20.88 4.64-13.568-2.016-24.352-21.216-31.632-32.912 3.136-2.336 6.768-5.152 10.976-8.576 8.976-7.28 18.288-11.136 26.928-11.136 12.816 0 21.808 8.656 25.008 20.368-14.4-3.856-29.792-4.688-45.328-1.184 16.8 0 32.464 4.544 46.192 12.176-1.04 6.096-7.024 13.728-11.264 16.624z" fill="#fff" data-original="#000000" xmlns="http://www.w3.org/2000/svg"/>
</svg>
